<?xml version="1.0" encoding="utf-8"?>
<!-- Generator: Adobe Illustrator 16.2.0, SVG Export Plug-In . SVG Version: 6.00 Build 0)  -->
<!DOCTYPE svg PUBLIC "-//W3C//DTD SVG 1.1//EN" "http://www.w3.org/Graphics/SVG/1.1/DTD/svg11.dtd">
<svg version="1.1" id="Слой_1" xmlns="http://www.w3.org/2000/svg" xmlns:xlink="http://www.w3.org/1999/xlink" x="0px" y="0px"
	 width="24px" height="28px" viewBox="0 0 24 28" enable-background="new 0 0 24 28" xml:space="preserve">
<path fill="#FFFFFF" d="M19.5,2c1.239,0,2.299,0.44,3.18,1.32C23.561,4.2,24,5.26,24,6.5v15c0,1.239-0.439,2.299-1.32,3.18
	C21.8,25.561,20.74,26,19.5,26h-2.938v-9.297h3.108l0.47-3.625h-3.578v-2.312c0-0.583,0.122-1.021,0.367-1.313
	c0.244-0.292,0.721-0.438,1.43-0.438l1.906-0.016V5.765c-0.656-0.094-1.584-0.141-2.781-0.141c-1.417,0-2.55,0.417-3.398,1.25
	s-1.273,2.01-1.273,3.531v2.672H9.688v3.625h3.125v9.297H4.5c-1.239,0-2.299-0.44-3.18-1.319C0.439,23.799,0,22.739,0,21.499v-15
	C0,5.26,0.44,4.2,1.32,3.319c0.88-0.88,1.94-1.32,3.18-1.32L19.5,2L19.5,2z"/>
</svg>
